<?xml version="1.0" encoding="UTF-8"?>
<svg width="350px" height="240px" viewBox="0 0 350 240" version="1.1" xmlns="http://www.w3.org/2000/svg" xmlns:xlink="http://www.w3.org/1999/xlink">
    <!-- Generator: Sketch 55.2 (78181) - https://sketchapp.com -->
    <title>BTH</title>
    <desc>Created with Sketch.</desc>
    <defs>
        <filter x="-5.8%" y="-12.2%" width="111.4%" height="123.9%" filterUnits="objectBoundingBox" id="filter-1">
            <feOffset dx="0" dy="2" in="SourceAlpha" result="shadowOffsetOuter1"></feOffset>
            <feGaussianBlur stdDeviation="1.5" in="shadowOffsetOuter1" result="shadowBlurOuter1"></feGaussianBlur>
            <feColorMatrix values="0 0 0 0 0   0 0 0 0 0   0 0 0 0 0  0 0 0 0.5 0" type="matrix" in="shadowBlurOuter1" result="shadowMatrixOuter1"></feColorMatrix>
            <feMerge>
                <feMergeNode in="shadowMatrixOuter1"></feMergeNode>
                <feMergeNode in="SourceGraphic"></feMergeNode>
            </feMerge>
        </filter>
        <linearGradient x1="50%" y1="21.3113198%" x2="50%" y2="58.4135761%" id="linearGradient-2">
            <stop stop-color="#FFA342" offset="0%"></stop>
            <stop stop-color="#FCC91A" offset="100%"></stop>
        </linearGradient>
        <linearGradient x1="50%" y1="21.3113198%" x2="50%" y2="58.4135761%" id="linearGradient-3">
            <stop stop-color="#FFA342" offset="0%"></stop>
            <stop stop-color="#FCC91A" offset="100%"></stop>
        </linearGradient>
    </defs>
    <g id="BTH" stroke="none" stroke-width="1" fill="none" fill-rule="evenodd">
        <rect fill="#FECF00" x="0" y="0" width="350" height="240"></rect>
        <g id="Logo" transform="translate(36.000000, 18.000000)">
            <path d="M92.6658486,193.6675 L100.503349,156 L104.255849,156 L112.093349,193.6675 L108.815849,193.6675 L102.403349,162.1275 L102.213349,162.1275 L95.7533486,193.6675 L92.6658486,193.6675 Z M170.665849,193.73 L178.503349,156.0625 L182.255849,156.0625 L190.093349,193.73 L186.815849,193.73 L180.403349,162.19 L180.213349,162.19 L173.753349,193.73 L170.665849,193.73 Z M56.4675,193.7575 L56.4675,159.225 L49.2,159.225 L49.2,156.09 L66.8225,156.09 L66.8225,159.225 L59.555,159.225 L59.555,193.7575 L56.4675,193.7575 Z M70.9366971,156.09 L74.1191971,156.09 L74.1191971,172.5725 L84.9016971,172.5725 L84.9016971,156.09 L88.0366971,156.09 L88.0366971,193.7575 L84.9016971,193.7575 L84.9016971,175.5175 L74.1191971,175.5175 L74.1191971,193.7575 L70.9366971,193.7575 L70.9366971,156.09 Z M115.740091,193.7575 L115.740091,156.09 L119.872591,156.09 L130.940091,184.97 L131.177591,184.97 L131.177591,156.09 L134.027591,156.09 L134.027591,193.7575 L131.225091,193.7575 L118.875091,162.3125 L118.685091,162.3125 L118.685091,193.7575 L115.740091,193.7575 Z M149.143485,156.09 L152.325985,156.09 L152.325985,172.5725 L163.108485,172.5725 L163.108485,156.09 L166.243485,156.09 L166.243485,193.7575 L163.108485,193.7575 L163.108485,175.5175 L152.325985,175.5175 L152.325985,193.7575 L149.143485,193.7575 L149.143485,156.09 Z M193.946879,156.09 L197.129379,156.09 L197.129379,190.67 L208.054379,190.67 L208.054379,193.7575 L193.946879,193.7575 L193.946879,156.09 Z M212.168577,156.09 L226.703577,156.09 L226.703577,159.225 L215.256077,159.225 L215.256077,173.38 L226.561077,173.38 L226.561077,176.325 L215.256077,176.325 L215.256077,193.7575 L212.168577,193.7575 L212.168577,156.09 Z" id="THANHALF" fill="#000000" fill-rule="nonzero"></path>
            <path d="M78.3685474,35.5852244 L83.7794514,35.5852244 C85.9243249,35.5852244 87.4354632,35.0652629 88.3129115,34.0253242 C89.1903597,32.9853855 89.6290773,31.3930032 89.6290773,29.2481297 L89.6290773,25.4946197 C89.6290773,23.674727 89.1984841,22.2935791 88.3372849,21.3511347 C87.4760857,20.4086902 86.200555,19.9374751 84.5106546,19.9374751 L78.3685474,19.9374751 L78.3685474,35.5852244 Z M88.6053928,18.4263217 C89.8078219,18.7838006 90.8152474,19.5312454 91.6276995,20.6686783 C92.4401516,21.8061113 92.8463716,23.3334983 92.8463716,25.2508853 L92.8463716,29.540611 C92.8463716,32.4329405 92.1395488,34.6752747 90.7258822,36.2676808 C89.3122155,37.8600869 86.9642641,38.6562781 83.6819576,38.6562781 L75.2,38.6562781 L75.2,2.27373675e-13 L84.364414,2.27373675e-13 C89.5641075,2.27373675e-13 92.1639152,3.00602771 92.1639152,9.01817332 L92.1639152,11.5530112 C92.1639152,13.5028963 91.8470636,15.0059101 91.213351,16.0620979 C90.5796384,17.1182856 89.7103276,17.8251084 88.6053928,18.1825873 L88.6053928,18.4263217 Z M78.3685474,3.1198005 L78.3685474,17.0126621 L84.5106546,17.0126621 C87.5979726,17.0126621 89.1416085,15.2902895 89.1416085,11.8454925 L89.1416085,9.0669202 C89.1416085,7.11703514 88.7435129,5.63839448 87.9473099,4.63095387 C87.1511068,3.62351325 85.8755761,3.1198005 84.1206796,3.1198005 L78.3685474,3.1198005 Z M97.6535296,2.27373675e-13 L112.862557,2.27373675e-13 L112.862557,3.21729426 L100.822077,3.21729426 L100.822077,17.5001309 L112.375088,17.5001309 L112.375088,20.5711845 L100.822077,20.5711845 L100.822077,35.4877307 L113.008798,35.4877307 L113.008798,38.6562781 L97.6535296,38.6562781 L97.6535296,2.27373675e-13 Z M124.15305,38.6562781 L124.15305,3.21729426 L116.694777,3.21729426 L116.694777,2.27373675e-13 L134.779871,2.27373675e-13 L134.779871,3.21729426 L127.321598,3.21729426 L127.321598,38.6562781 L124.15305,38.6562781 Z M146.021617,38.6562781 L146.021617,3.21729426 L138.563344,3.21729426 L138.563344,2.27373675e-13 L156.648438,2.27373675e-13 L156.648438,3.21729426 L149.190165,3.21729426 L149.190165,38.6562781 L146.021617,38.6562781 Z M160.870633,2.27373675e-13 L176.079661,2.27373675e-13 L176.079661,3.21729426 L164.039181,3.21729426 L164.039181,17.5001309 L175.592192,17.5001309 L175.592192,20.5711845 L164.039181,20.5711845 L164.039181,35.4877307 L176.225901,35.4877307 L176.225901,38.6562781 L160.870633,38.6562781 L160.870633,2.27373675e-13 Z M200.434319,38.3637968 C200.206832,38.6237814 199.898105,38.8106426 199.508128,38.9243859 C199.118151,39.0381292 198.695682,39.095 198.240709,39.095 C196.875789,39.095 195.852115,38.7375264 195.169655,38.0225686 C194.487196,37.3076107 194.145971,36.1376972 194.145971,34.512793 L194.145971,26.1283292 C194.145971,24.3409345 193.869741,23.0410307 193.317274,22.2285786 C192.764806,21.4161264 191.676137,21.0099065 190.051233,21.0099065 L184.347847,21.0099065 L184.347847,38.6562781 L181.081806,38.6562781 L181.081806,2.27373675e-13 L190.051233,2.27373675e-13 C192.488589,2.27373675e-13 194.381574,0.698698333 195.730245,2.09611596 C197.078915,3.49353359 197.75324,5.76836537 197.75324,8.92067955 L197.75324,12.7716833 C197.75324,13.9091162 197.655747,14.8759198 197.460759,15.6721228 C197.26577,16.4683259 197.00579,17.1345266 196.680809,17.670745 C196.355828,18.2069634 195.965857,18.6294322 195.510884,18.938164 C195.05591,19.2468958 194.568446,19.4825033 194.048477,19.6449938 L194.048477,19.8399813 C195.088416,20.0674679 195.90898,20.5874294 196.510195,21.3998815 C197.111409,22.2123337 197.412012,23.5284863 197.412012,25.3483791 L197.412012,34.512793 C197.412012,35.8452145 197.948222,36.5114152 199.020659,36.5114152 C199.605625,36.5114152 200.07684,36.3326784 200.434319,35.9751995 L200.434319,38.3637968 Z M184.299101,18.2313342 L190.148726,18.2313342 C191.578642,18.2313342 192.699809,17.8576118 193.512261,17.1101559 C194.324713,16.3626999 194.730933,15.0140496 194.730933,13.0641646 L194.730933,9.16441397 C194.730933,7.0195404 194.308465,5.47590455 193.463514,4.5334601 C192.618564,3.59101565 191.416153,3.1198005 189.856245,3.1198005 L184.299101,3.1198005 L184.299101,18.2313342 Z" id="BETTER" fill="#000000" fill-rule="nonzero"></path>
            <g id="Icon" transform="translate(0.000000, 50.000000)">
                <g id="Logo-2-Copy-2" filter="url(#filter-1)" transform="translate(39.200000, 0.000000)" stroke="#000000" stroke-width="2">
                    <g id="Group-3" transform="translate(0.250000, 0.000000)" fill="#FFFFFF">
                        <ellipse id="Oval-Copy" cx="40.625" cy="69.375" rx="40.625" ry="24.375"></ellipse>
                        <circle id="Oval-Copy-2" cx="41.25" cy="26.25" r="26.25"></circle>
                    </g>
                    <g id="Group" transform="translate(116.000000, 0.000000)" fill="#FFFFFF">
                        <ellipse id="Oval-Copy-6" cx="40.625" cy="69.375" rx="40.625" ry="24.375"></ellipse>
                        <circle id="Oval-Copy-5" cx="41.25" cy="26.25" r="26.25"></circle>
                    </g>
                    <g id="Group-2" transform="translate(58.000000, 0.000000)">
                        <ellipse id="Oval-Copy-3" fill="url(#linearGradient-2)" cx="40.625" cy="69.375" rx="40.625" ry="24.375"></ellipse>
                        <circle id="Oval-Copy-4" fill="url(#linearGradient-3)" cx="41.25" cy="26.25" r="26.25"></circle>
                    </g>
                </g>
                <g id="Group-5" transform="translate(242.200000, 42.000000)" fill="#000000">
                    <circle id="Oval" cx="5.5" cy="5.5" r="5.5"></circle>
                    <circle id="Oval-Copy-7" cx="20.5" cy="5.5" r="3.5"></circle>
                    <circle id="Oval-Copy-8" cx="33.5" cy="5.5" r="1.5"></circle>
                </g>
                <g id="Group-5-Copy" transform="translate(17.700000, 47.500000) scale(-1, 1) translate(-17.700000, -47.500000) translate(0.200000, 42.000000)" fill="#000000">
                    <circle id="Oval" cx="5.5" cy="5.5" r="5.5"></circle>
                    <circle id="Oval-Copy-7" cx="20.5" cy="5.5" r="3.5"></circle>
                    <circle id="Oval-Copy-8" cx="33.5" cy="5.5" r="1.5"></circle>
                </g>
            </g>
        </g>
    </g>
</svg>