<?xml version="1.0" encoding="UTF-8"?>
<svg width="350px" height="240px" viewBox="0 0 350 240" version="1.1" xmlns="http://www.w3.org/2000/svg" xmlns:xlink="http://www.w3.org/1999/xlink">
    <!-- Generator: Sketch 55.2 (78181) - https://sketchapp.com -->
    <title>jie</title>
    <desc>Created with Sketch.</desc>
    <defs>
        <radialGradient cx="60.4819101%" cy="0%" fx="60.4819101%" fy="0%" r="100%" gradientTransform="translate(0.604819,0.000000),scale(0.716496,1.000000),rotate(90.000000),translate(-0.604819,-0.000000)" id="radialGradient-1">
            <stop stop-color="#3A0088" offset="0%"></stop>
            <stop stop-color="#714288" offset="100%"></stop>
        </radialGradient>
        <radialGradient cx="60.4819101%" cy="0%" fx="60.4819101%" fy="0%" r="199.346475%" gradientTransform="translate(0.604819,0.000000),scale(1.000000,0.501639),rotate(90.000000),translate(-0.604819,-0.000000)" id="radialGradient-2">
            <stop stop-color="#3A0088" offset="0%"></stop>
            <stop stop-color="#714288" offset="100%"></stop>
        </radialGradient>
        <radialGradient cx="60.4819101%" cy="0%" fx="60.4819101%" fy="0%" r="100%" gradientTransform="translate(0.604819,0.000000),scale(0.662476,1.000000),rotate(90.000000),translate(-0.604819,-0.000000)" id="radialGradient-3">
            <stop stop-color="#3A0088" offset="0%"></stop>
            <stop stop-color="#714288" offset="100%"></stop>
        </radialGradient>
    </defs>
    <g id="jie" stroke="none" stroke-width="1" fill="none" fill-rule="evenodd">
        <rect fill="#D8D8D8" x="0" y="0" width="350" height="240"></rect>
        <g id="Concept-4-Copy" transform="translate(11.000000, 56.000000)">
            <path d="M113.74475,61.5388239 C110.772776,67.6596348 109.104479,74.5406704 109.104479,81.814433 C109.104479,89.0924776 110.77474,95.9773325 113.75,102.100851 C99.169426,112.120457 87.1534067,117.130261 77.701942,117.130261 C34.0842304,117.130261 2.84217094e-14,90.0833073 2.84217094e-14,84.2069673 C42.8140184,70.4457085 48.3279757,35.628866 68.9921307,35.628866 C86.8587312,35.628866 91.2116619,61.2772427 113.74475,61.5388239 Z" id="Combined-Shape" fill="url(#radialGradient-1)"></path>
            <path d="M328.99475,61.5388239 C326.022776,67.6596348 324.354479,74.5406704 324.354479,81.814433 C324.354479,89.0924776 326.02474,95.9773325 329,102.100851 C314.419426,112.120457 302.403407,117.130261 292.951942,117.130261 C249.33423,117.130261 215.25,90.0833073 215.25,84.2069673 C258.064018,70.4457085 263.577976,35.628866 284.242131,35.628866 C302.108731,35.628866 306.461662,61.2772427 328.99475,61.5388239 Z" id="Combined-Shape-Copy" fill="#000000" transform="translate(272.125000, 76.379563) scale(-1, 1) translate(-272.125000, -76.379563) "></path>
            <g id="Record" transform="translate(118.125000, 35.628866)">
                <path d="M46.7005784,92.371134 C21.27002,92.371134 21.27002,0 46.7005784,0 C72.1311368,0 92.7466777,20.6779827 92.7466777,46.185567 C92.7466777,71.6931513 72.1311368,92.371134 46.7005784,92.371134 Z M46.0460993,56.0824742 C51.4955047,56.0824742 55.9131206,51.6514779 55.9131206,46.185567 C55.9131206,40.7196561 51.4955047,36.2886598 46.0460993,36.2886598 C40.5966939,36.2886598 36.179078,40.7196561 36.179078,46.185567 C36.179078,51.6514779 40.5966939,56.0824742 46.0460993,56.0824742 Z" id="Combined-Shape" fill="#000000"></path>
                <path d="M46.2518854,36.2907695 C46.1834588,36.2893653 46.1148612,36.2886598 46.0460993,36.2886598 C40.5966939,36.2886598 36.179078,40.7196561 36.179078,46.185567 C36.179078,51.6514779 40.5966939,56.0824742 46.0460993,56.0824742 C46.1380372,56.0824742 46.2296815,56.081213 46.3210159,56.0787069 C46.3665726,75.442068 46.3262838,92.371134 46.0460993,92.371134 C20.6155409,92.371134 1.56319402e-13,71.6931513 1.56319402e-13,46.185567 C1.56319402e-13,20.6779827 20.6156178,0 46.0460993,0 C46.0460993,0 46.1660403,16.9280999 46.2518854,36.2907695 Z" id="Combined-Shape" fill="url(#radialGradient-2)"></path>
            </g>
            <g id="Halo" transform="translate(126.875000, 0.000000)" stroke-width="6.125">
                <path d="M37.625,0 C16.9443354,0 0,5.57979672 0,12.4628248 C0,19.3458528 16.8452863,24.9256496 37.625,24.9256496 L37.625,24.9256496" id="Path" stroke="#000000"></path>
                <path d="M75.25,0 C54.5693354,0 37.625,5.57979672 37.625,12.4628248 C37.625,19.3458528 54.4702863,24.9256496 75.25,24.9256496" id="Path" stroke="url(#radialGradient-3)" transform="translate(56.437500, 12.462825) scale(-1, 1) translate(-56.437500, -12.462825) "></path>
            </g>
        </g>
    </g>
</svg>