<?xml version="1.0" encoding="UTF-8"?>
<svg width="350px" height="240px" viewBox="0 0 350 240" version="1.1" xmlns="http://www.w3.org/2000/svg" xmlns:xlink="http://www.w3.org/1999/xlink">
    <!-- Generator: Sketch 55.2 (78181) - https://sketchapp.com -->
    <title>jwp</title>
    <desc>Created with Sketch.</desc>
    <defs>
        <path d="M52.6318915,21.8804657 C48.8264179,21.8804657 45.9723556,20.9911729 44.0696188,19.2125607 C42.166882,17.4339484 41.2155279,14.9484891 41.2155279,11.7561082 C41.2155279,8.56372723 42.4613487,5.89584888 44.9530279,3.75239309 C47.444707,1.60893731 50.5479335,0.537225496 54.2628006,0.537225496 C57.6152416,0.537225496 60.3333962,1.35811114 62.417346,2.99990706 C64.5012959,4.64170298 65.5432551,6.96754564 65.5432551,9.97750483 C65.5432551,13.6259402 64.3653881,16.5218423 62.0096188,18.6652981 C59.6538494,20.8087539 56.5279716,21.8804657 52.6318915,21.8804657 Z M77.0955279,64.4301305 C78.2734125,64.4301305 79.2021154,65.00019 79.8816642,66.1403261 C80.5612131,67.2804621 80.9009824,68.717012 80.9009824,70.4500188 C80.9009824,72.5478691 80.5838644,74.1896404 79.9496188,75.3753819 C79.3153732,76.5611234 78.3187165,77.6100329 76.9596188,78.5221417 C70.6171628,82.7178424 62.1455809,88.5096467 51.5446188,95.8977283 C48.0109647,114.869592 43.4354044,129.782348 37.8178006,140.636443 C32.2001967,151.490539 25.0423895,156.917505 16.3441642,156.917505 C11.6326255,156.917505 7.84986031,155.480955 4.99575513,152.607812 C2.14164995,149.734669 0.714618768,145.972277 0.714618768,141.320522 C0.714618768,134.844549 3.20626052,127.935428 8.18961877,120.592952 C13.172977,113.250476 22.5506105,104.197931 36.3228006,93.4350467 L37.2741642,86.457449 C38.5426554,77.7012041 39.5393121,69.0819048 40.2641642,60.5992925 C40.8078033,55.6739048 41.6685523,48.3315387 42.846437,38.5719741 C43.208863,35.9268585 44.2055197,33.9886562 45.836437,32.7573093 C47.4673542,31.5259624 49.9589959,30.9102981 53.311437,30.9102981 C56.0296324,30.9102981 57.8190842,31.3207409 58.679846,32.1416389 C59.5406079,32.9625369 59.9709824,34.1026558 59.9709824,35.56203 C59.9709824,39.7577306 58.4759974,51.3413392 55.4859824,70.3132031 L54.1268915,79.7534825 C61.3754126,74.2808294 67.9895889,69.5379346 73.9696188,65.5246557 C75.1475034,64.7949686 76.1894627,64.4301305 77.0955279,64.4301305 Z M17.8391642,143.646388 C20.1949336,143.646388 22.7771805,140.955707 25.5859824,135.574265 C28.3947843,130.192822 31.0223338,121.527918 33.4687097,109.579293 C26.5826146,115.508 21.6219824,120.866559 18.5866642,125.655131 C15.551346,130.443702 14.0337097,134.662142 14.0337097,138.310577 C14.0337097,141.867802 15.3021818,143.646388 17.8391642,143.646388 Z M175.276751,53.0744322 C175.548571,52.9832213 176.001597,52.9376166 176.635842,52.9376166 C177.99494,52.9376166 179.036899,53.3936641 179.761751,54.305773 C180.486603,55.2178818 180.849024,56.4492103 180.849024,57.9997953 C180.849024,60.8273327 180.305393,63.0391635 179.218115,64.635354 C178.130837,66.2315445 176.499944,67.3944658 174.325388,68.1241529 C170.157488,69.4923161 165.717835,70.1763875 161.006297,70.1763875 C157.01961,70.1763875 153.259496,69.6291304 149.725842,68.5345998 C147.098253,72.8215114 144.198888,77.2451729 141.02766,81.8057171 C137.4034,87.0047375 134.300173,90.5619087 131.717888,92.4773372 C129.135602,94.3927658 126.213586,95.3504657 122.951751,95.3504657 C119.327491,95.3504657 116.586685,93.9367182 114.729251,91.1091808 C112.871818,88.2816434 111.716602,83.6299581 111.263569,77.1539853 L110.584024,67.1664434 C107.775222,74.8281577 105.260929,80.6655667 103.041069,84.6788456 C100.82121,88.6921245 98.6013836,91.4740148 96.381524,93.0245998 C94.1616644,94.5751848 91.5567662,95.3504657 88.5667513,95.3504657 C84.8518842,95.3504657 81.929868,93.8911135 79.8006149,90.9723652 C77.6713618,88.0536169 76.3349358,83.4475363 75.7912967,77.1539853 C74.7040186,64.3844615 74.1603876,53.2112957 74.1603876,43.6341529 L74.1603876,38.8456054 C74.2509941,35.8356462 75.0664405,33.7378273 76.6067513,32.5520858 C78.147062,31.3663443 80.4574934,30.7734825 83.5381149,30.7734825 C85.8938843,30.7734825 87.6380335,31.2979372 88.7706149,32.3468624 C89.9031963,33.3957875 90.4694785,35.1515707 90.4694785,37.6142646 C90.4694785,48.1035163 91.1037146,61.739339 92.3722058,78.5221417 C98.5334487,65.4789852 104.196271,51.8887673 109.360842,37.7510802 C110.357514,35.0147537 111.558032,33.167761 112.962433,32.2100467 C114.366834,31.2523324 116.065681,30.7734825 118.059024,30.7734825 C120.5054,30.7734825 122.204247,31.2751348 123.155615,32.2784545 C124.106983,33.2817743 124.58266,35.0603598 124.58266,37.6142646 C124.58266,48.1035163 125.216896,61.739339 126.485388,78.5221417 C131.921778,70.404373 135.99901,63.9284973 138.717206,59.0943205 C137.358108,56.4492048 136.678569,53.3024765 136.678569,49.6540411 C136.678569,46.5528711 137.358108,43.542957 138.717206,40.6242087 C140.076304,37.7054604 141.933709,35.334013 144.289479,33.5097953 C146.645248,31.6855776 149.3181,30.7734825 152.308115,30.7734825 C154.935704,30.7734825 157.064925,31.70838 158.695842,33.5782031 C160.326759,35.4480263 161.142206,38.1615094 161.142206,41.7187339 C161.142206,45.8232237 160.054944,50.5205138 157.880388,55.810745 C161.323435,55.6283233 165.898995,54.9442519 171.607206,53.7585104 L175.276751,53.0744322 Z M226.161611,52.9376166 C226.161611,60.1432764 224.508067,66.9611878 221.200929,73.3915551 C217.893791,79.8219225 213.499441,85.0436673 208.017747,89.0569462 C202.536053,93.0702251 196.66937,95.168044 190.41752,95.3504657 C189.239635,112.954166 186.566783,127.661701 182.398884,139.47351 C178.230984,151.28532 172.115136,157.191136 164.051157,157.191136 C159.158405,157.191136 155.534199,155.412551 153.178429,151.855326 C150.82266,148.298102 149.644793,143.372788 149.644793,137.079237 C149.644793,128.14057 151.683409,117.719883 155.760702,105.816862 C159.837995,93.913842 166.135053,80.802474 174.652066,66.4823652 C174.652066,53.165576 174.56146,43.9078102 174.380247,38.7087897 C174.289641,36.0636741 175.3316,33.9658552 177.506157,32.4152702 C179.680713,30.8646852 182.398867,30.0894043 185.660702,30.0894043 C187.563439,30.0894043 188.945167,30.4770447 189.805929,31.2523372 C190.666691,32.0276297 191.142368,33.5553891 191.232975,35.8356613 C191.232975,38.1159334 191.278277,39.8033094 191.368884,40.89784 C194.268292,37.2494046 197.122355,34.6271311 199.931157,33.0309406 C202.739958,31.4347501 205.729929,30.6366668 208.901157,30.6366668 C213.975121,30.6366668 218.120307,32.688881 221.336838,36.7933707 C224.55337,40.8978605 226.161611,46.279222 226.161611,52.9376166 Z M191.097066,82.216164 C194.3589,81.486477 197.371521,79.685089 200.13502,76.8119462 C202.898519,73.9388033 205.095694,70.3816322 206.726611,66.1403261 C208.357528,61.8990199 209.172975,57.452556 209.172975,52.8008009 C209.172975,50.0644744 208.629344,47.9894579 207.542066,46.5756892 C206.454787,45.1619205 205.005105,44.4550467 203.192975,44.4550467 C199.93114,44.4550467 195.989816,47.9210083 191.368884,54.8530356 C191.278277,58.8663145 191.232975,64.7493283 191.232975,72.5022534 C191.232975,76.6979541 191.187672,79.9358919 191.097066,82.216164 Z M165.138429,143.783203 C167.584805,143.783203 169.623421,138.424644 171.254338,127.707365 C172.885256,116.990086 173.927215,103.650695 174.380247,87.6887897 C170.484167,96.8098782 167.403592,105.520387 165.138429,113.820577 C162.873266,122.120768 161.740702,129.098296 161.740702,134.753371 C161.740702,137.672119 162.080471,139.906752 162.76002,141.457337 C163.439569,143.007922 164.232364,143.783203 165.138429,143.783203 Z" id="path-1"></path>
        <filter x="-2.7%" y="-3.8%" width="105.3%" height="107.7%" filterUnits="objectBoundingBox" id="filter-2">
            <feOffset dx="0" dy="0" in="SourceAlpha" result="shadowOffsetOuter1"></feOffset>
            <feGaussianBlur stdDeviation="2" in="shadowOffsetOuter1" result="shadowBlurOuter1"></feGaussianBlur>
            <feColorMatrix values="0 0 0 0 1   0 0 0 0 1   0 0 0 0 1  0 0 0 1 0" type="matrix" in="shadowBlurOuter1"></feColorMatrix>
        </filter>
        <filter x="-3.1%" y="-2.7%" width="108.1%" height="106.7%" filterUnits="objectBoundingBox" id="filter-3">
            <feOffset dx="0" dy="0" in="SourceAlpha" result="shadowOffsetOuter1"></feOffset>
            <feGaussianBlur stdDeviation="1" in="shadowOffsetOuter1" result="shadowBlurOuter1"></feGaussianBlur>
            <feColorMatrix values="0 0 0 0 1   0 0 0 0 1   0 0 0 0 1  0 0 0 1 0" type="matrix" in="shadowBlurOuter1" result="shadowMatrixOuter1"></feColorMatrix>
            <feMerge>
                <feMergeNode in="shadowMatrixOuter1"></feMergeNode>
                <feMergeNode in="SourceGraphic"></feMergeNode>
            </feMerge>
        </filter>
        <path d="M133.097686,30.2192133 C134.988844,33.9580858 134.656732,36.3711105 132.10135,37.4582873 C43.7748872,35.1534501 21.4822337,80.8678686 21.4822337,130.559148 C21.4822337,130.559148 22.1096538,134.242207 25.7787281,130.559148 C26.5253899,129.809641 31.7279007,115.79822 32.3361431,80.8678686 C37.7571864,70.038656 46.2058851,61.3367096 49.6087719,59.6464123 C49.6087719,104.065823 42.4615036,144.763759 22.5489198,145.614352 C9.68072826,145.04729 5.41181084,133.095813 9.74216752,109.75992 C19.8142717,50.2184575 59.978497,23.0680348 130.234843,28.3086523 L130.234843,28.308663 C131.457967,28.3998992 132.544087,29.124734 133.097686,30.2192133 Z" id="path-4"></path>
        <filter x="-2.4%" y="-2.5%" width="104.8%" height="105.1%" filterUnits="objectBoundingBox" id="filter-5">
            <feOffset dx="0" dy="0" in="SourceAlpha" result="shadowOffsetOuter1"></feOffset>
            <feGaussianBlur stdDeviation="1" in="shadowOffsetOuter1" result="shadowBlurOuter1"></feGaussianBlur>
            <feColorMatrix values="0 0 0 0 1   0 0 0 0 1   0 0 0 0 1  0 0 0 1 0" type="matrix" in="shadowBlurOuter1"></feColorMatrix>
        </filter>
    </defs>
    <g id="jwp" stroke="none" stroke-width="1" fill="none" fill-rule="evenodd">
        <rect fill="#D8D8D8" x="0" y="0" width="350" height="240"></rect>
        <g id="1.1-copy-15" transform="translate(26.000000, 41.000000)">
            <g id="jwp" fill-rule="nonzero">
                <use fill="black" fill-opacity="1" filter="url(#filter-2)" xlink:href="#path-1"></use>
                <use fill="#000000" xlink:href="#path-1"></use>
                <use fill="#000000" xlink:href="#path-1"></use>
            </g>
            <g id="Arrow" filter="url(#filter-3)" transform="translate(224.346826, 92.120004) rotate(-270.000000) translate(-224.346826, -92.120004) translate(159.135083, 17.175983)">
                <g id="Rectangle" transform="translate(71.205430, 86.643543) rotate(-90.000000) translate(-71.205430, -86.643543) ">
                    <use fill="black" fill-opacity="1" filter="url(#filter-5)" xlink:href="#path-4"></use>
                    <use fill="#000000" fill-rule="evenodd" xlink:href="#path-4"></use>
                </g>
                <polygon id="Triangle" fill="#000000" transform="translate(17.126316, 24.097045) rotate(-360.000000) translate(-17.126316, -24.097045) " points="17.1263164 0 34.2526328 48.1940907 17.1263164 24.0970453 2.27373675e-13 48.1940907"></polygon>
            </g>
            <rect id="Rectangle" stroke="#000000" stroke-width="0.875" fill="#D8D8D8" x="207.218873" y="46.5741519" width="1" height="1"></rect>
            <rect id="Rectangle" stroke="#000000" stroke-width="0.875" fill="#D8D8D8" opacity="0.756649926" x="224.784326" y="41.7105281" width="1" height="1"></rect>
            <rect id="Rectangle" stroke="#000000" stroke-width="0.875" fill="#D8D8D8" x="224.34519" y="41.2683805" width="1" height="1"></rect>
            <rect id="Rectangle" stroke="#000000" stroke-width="0.875" fill="#D8D8D8" x="207.218873" y="46.1320043" width="1" height="1"></rect>
            <path d="M225.240348,44.3475978 C226.882296,51.0035358 227.11564,54.9356623 225.940381,56.1439773 C222.412893,65.2922004 219.614594,70.2204926 217.545484,70.928854 C215.637607,71.5820174 212.771354,64.6885527 208.039616,65.0197616 C208.039616,65.0197616 208.164797,64.0610912 208.41516,62.1437506 C207.458531,50.2796488 206.980217,43.7209005 206.980217,42.4675058 C207.981772,42.0312616 212.092104,39.5671497 215.130925,39.5671497 C219.499226,39.5671497 220.820852,40.230789 222.128918,38.7796006 C222.902206,37.9217035 224.810529,43.1428774 225.240348,44.3475978 Z" id="Path" fill="#000000"></path>
            <rect id="Rectangle" stroke="#000000" stroke-width="0.875" fill="#D8D8D8" x="224.34519" y="41.7105281" width="1" height="1"></rect>
            <path d="M206.980217,45.9171238 C209.348774,51.4169549 209.679669,56.8849266 207.972903,62.3210391" id="Path-4" stroke-opacity="0.45" stroke="#FFFFFF" stroke-width="0.875"></path>
            <path d="M224.293811,40.8150668 C226.082038,46.7299845 226.756105,51.7467192 226.31601,55.8652711" id="Path-4" stroke-opacity="0.45" stroke="#FFF5F5" stroke-width="0.875"></path>
        </g>
    </g>
</svg>