<?xml version="1.0" encoding="UTF-8"?>
<svg width="350px" height="240px" viewBox="0 0 350 240" version="1.1" xmlns="http://www.w3.org/2000/svg" xmlns:xlink="http://www.w3.org/1999/xlink">
    <!-- Generator: Sketch 55.2 (78181) - https://sketchapp.com -->
    <title>Logo Design</title>
    <desc>Created with Sketch.</desc>
    <defs>
        <path d="M30.1005132,12.4635564 C27.9241387,12.4635564 26.2918823,11.9569972 25.203695,10.9438637 C24.1155078,9.93073013 23.5714223,8.51496216 23.5714223,6.69651732 C23.5714223,4.87807247 24.2839152,3.35839493 25.7089223,2.1374391 C27.1339294,0.916483279 28.9086844,0.306014523 31.0332405,0.306014523 C32.9505228,0.306014523 34.5050527,0.773607612 35.6968768,1.70880782 C36.888701,2.64400803 37.4846041,3.96885511 37.4846041,5.68338882 C37.4846041,7.76161151 36.8109745,9.41117602 35.463695,10.6321318 C34.1164156,11.8530877 32.3287062,12.4635564 30.1005132,12.4635564 Z M44.0914223,36.7007073 C44.765062,36.7007073 45.2961931,37.0254247 45.6848314,37.6748693 C46.0734697,38.3243139 46.2677859,39.1426018 46.2677859,40.1297575 C46.2677859,41.3247356 46.0864241,42.2599218 45.723695,42.9353441 C45.3609659,43.6107665 44.7909716,44.2082466 44.013695,44.7278022 C40.3864042,47.1177583 35.5414526,50.4168873 29.478695,54.6252883 C27.4577758,65.4320462 24.8409838,73.926654 21.6282405,80.1093665 C18.4154971,86.292079 14.3219017,89.3833888 9.34733138,89.3833888 C6.65277245,89.3833888 4.48938499,88.5651009 2.85710411,86.9285006 C1.22482322,85.2919002 0.408695015,83.1487652 0.408695015,80.4990313 C0.408695015,76.810186 1.83368076,72.8746109 4.68369501,68.6921877 C7.53370926,64.5097646 12.8968375,59.3532519 20.7732405,53.222495 L21.3173314,49.247914 C22.0427896,44.2601795 22.6127839,39.3504521 23.0273314,34.5185844 C23.338242,31.7129837 23.8305098,27.5306233 24.5041496,21.9713777 C24.7114233,20.4646662 25.2814176,19.360627 26.2141496,18.6592268 C27.1468815,17.9578267 28.5718672,17.6071318 30.4891496,17.6071318 C32.0437028,17.6071318 33.0671016,17.8409284 33.5593768,18.3085285 C34.051652,18.7761286 34.2977859,19.4255634 34.2977859,20.2568525 C34.2977859,22.6468086 33.4427945,29.2450666 31.7327859,40.0518246 L30.9555132,45.4291989 C35.1009885,42.3118649 38.8836779,39.6102159 42.303695,37.3241709 C42.9773347,36.9085264 43.5732379,36.7007073 44.0914223,36.7007073 Z M10.2023314,81.8238916 C11.5496108,81.8238916 13.0264143,80.2912254 14.6327859,77.2258469 C16.2391576,74.1604685 17.7418698,69.2247636 19.1409677,62.4185844 C15.2027662,65.7956962 12.3657491,68.84804 10.6298314,71.5757073 C8.89391361,74.3033745 8.02596774,76.7062835 8.02596774,78.7845061 C8.02596774,80.8107733 8.75141503,81.8238916 10.2023314,81.8238916 Z M100.241888,30.2322715 C100.397343,30.1803159 100.656431,30.1543385 101.019161,30.1543385 C101.796437,30.1543385 102.39234,30.4141125 102.806888,30.9336682 C103.221435,31.4532238 103.428706,32.1546135 103.428706,33.0378581 C103.428706,34.6484807 103.1178,35.9083843 102.495979,36.8176067 C101.874157,37.7268291 100.94144,38.3892527 99.6977969,38.8048972 C97.3141487,39.5842307 94.7750831,39.9738916 92.0805242,39.9738916 C89.8005128,39.9738916 87.6500798,39.6621629 85.6291606,39.0386961 C84.1264258,41.4806077 82.4682606,44.0004149 80.6546151,46.5981933 C78.5818775,49.5596606 76.8071225,51.5858973 75.3302969,52.6769642 C73.8534714,53.7680312 72.1823517,54.3135564 70.3168879,54.3135564 C68.2441502,54.3135564 66.6766659,53.5082572 65.6143879,51.8976346 C64.5521098,50.2870121 63.8914346,47.6373179 63.6323424,43.9484726 L63.243706,38.2593665 C61.6373344,42.6236341 60.1993942,45.9487405 58.9298424,48.2347855 C57.6602906,50.5208304 56.3907578,52.1054514 55.121206,52.9886961 C53.8516542,53.8719407 52.3618964,54.3135564 50.6518879,54.3135564 C48.5273318,54.3135564 46.8562121,53.4822798 45.6384788,51.8197017 C44.4207454,50.1571235 43.6564349,47.5334067 43.3455242,43.9484726 C42.7237029,36.6746932 42.4127969,30.3102317 42.4127969,24.8548972 L42.4127969,22.1272436 C42.4646154,20.4127099 42.9309744,19.2177497 43.8118879,18.5423274 C44.6928013,17.866905 46.0141518,17.5291989 47.7759788,17.5291989 C49.1232582,17.5291989 50.1207482,17.8279389 50.7684788,18.4254279 C51.4162093,19.022917 51.7400697,20.0230466 51.7400697,21.4258469 C51.7400697,27.4007371 52.1027933,35.1679779 52.8282515,44.7278022 C56.3519055,37.2981561 59.5905094,29.5568928 62.5441606,21.5037799 C63.1141634,19.9451129 63.8007475,18.8930284 64.6039333,18.347495 C65.4071191,17.8019615 66.3787003,17.5291989 67.518706,17.5291989 C68.9178039,17.5291989 69.8893851,17.8149502 70.4334788,18.3864615 C70.9775724,18.9579727 71.2496151,19.971091 71.2496151,21.4258469 C71.2496151,27.4007371 71.6123388,35.1679779 72.3377969,44.7278022 C75.4469034,40.1037568 77.7786983,36.4149668 79.3332515,33.6613218 C78.5559749,32.1546103 78.1673424,30.3621702 78.1673424,28.2839475 C78.1673424,26.5174582 78.5559749,24.8029502 79.3332515,23.1403721 C80.1105281,21.4777939 81.1727902,20.1269694 82.5200697,19.0878581 C83.8673491,18.0487468 85.3959702,17.5291989 87.1059788,17.5291989 C88.6087135,17.5291989 89.8264286,18.0617355 90.7591606,19.1268246 C91.6918925,20.1919137 92.1582515,21.7375686 92.1582515,23.7638358 C92.1582515,26.1018363 91.5364395,28.7775078 90.2927969,31.7909307 C92.2618977,31.6870196 94.8786897,31.2973587 98.1432515,30.6219363 L100.241888,30.2322715 Z M129.343263,30.1543385 C129.343263,34.2588283 128.39759,38.1424487 126.506217,41.8053162 C124.614844,45.4681837 122.101687,48.4425953 118.966672,50.7286402 C115.831656,53.0146852 112.476462,54.2096453 108.90099,54.3135564 C108.22735,64.3409809 106.698729,72.7186904 104.315081,79.4469363 C101.931432,86.1751822 98.4337401,89.5392547 93.8218989,89.5392547 C91.0237031,89.5392547 88.9509965,88.5261364 87.6037171,86.4998693 C86.2564376,84.4736022 85.582808,81.6680436 85.582808,78.0831095 C85.582808,72.9914639 86.7487054,67.0556294 89.0805352,60.2754279 C91.4123651,53.4952264 95.0136927,46.0267257 99.8846261,37.8697017 C99.8846261,30.2841889 99.8328085,25.0107779 99.7291716,22.0493106 C99.6773532,20.5425992 100.273256,19.3476391 101.516899,18.4643944 C102.760541,17.5811498 104.315071,17.1395341 106.180535,17.1395341 C107.268722,17.1395341 108.058942,17.3603419 108.551217,17.8019642 C109.043492,18.2435866 109.315535,19.1138293 109.367353,20.4127184 C109.367353,21.7116076 109.393262,22.6727712 109.445081,23.296238 C111.103271,21.2180153 112.735527,19.7243152 114.341899,18.8150927 C115.948271,17.9058703 117.658253,17.4512659 119.471899,17.4512659 C122.373732,17.4512659 124.74439,18.6202486 126.583944,20.9582492 C128.423499,23.2962497 129.343263,26.3615822 129.343263,30.1543385 Z M109.289626,46.8319922 C111.15509,46.4163476 112.878027,45.3902406 114.45849,43.7536402 C116.038952,42.1170399 117.295531,40.0908031 118.228263,37.6748693 C119.160994,35.2589354 119.627353,32.7261395 119.627353,30.0764056 C119.627353,28.5177386 119.316447,27.3357672 118.694626,26.5304559 C118.072805,25.7251446 117.243722,25.322495 116.207353,25.322495 C114.34189,25.322495 112.087821,27.2967769 109.445081,31.2454 C109.393262,33.5314449 109.367353,36.8825288 109.367353,41.298752 C109.367353,43.688708 109.341445,45.533103 109.289626,46.8319922 Z M94.4437171,81.9018246 C95.842815,81.9018246 97.0087124,78.8494808 97.9414443,72.7447017 C98.8741763,66.6399225 99.4700794,59.0415348 99.7291716,49.9493106 C97.5009786,55.1448673 95.7391781,60.1065495 94.4437171,64.8345061 C93.148256,69.5624627 92.5005352,73.537004 92.5005352,76.7582492 C92.5005352,78.4208273 92.6948515,79.6937196 93.0834898,80.5769642 C93.4721281,81.4602089 93.9255326,81.9018246 94.4437171,81.9018246 Z" id="path-1"></path>
        <filter x="-2.3%" y="-3.4%" width="104.7%" height="106.7%" filterUnits="objectBoundingBox" id="filter-2">
            <feOffset dx="0" dy="0" in="SourceAlpha" result="shadowOffsetOuter1"></feOffset>
            <feGaussianBlur stdDeviation="1" in="shadowOffsetOuter1" result="shadowBlurOuter1"></feGaussianBlur>
            <feColorMatrix values="0 0 0 0 1   0 0 0 0 1   0 0 0 0 1  0 0 0 1 0" type="matrix" in="shadowBlurOuter1"></feColorMatrix>
        </filter>
        <filter x="-3.4%" y="-2.9%" width="108.6%" height="107.8%" filterUnits="objectBoundingBox" id="filter-3">
            <feOffset dx="0" dy="0" in="SourceAlpha" result="shadowOffsetOuter1"></feOffset>
            <feGaussianBlur stdDeviation="0.5" in="shadowOffsetOuter1" result="shadowBlurOuter1"></feGaussianBlur>
            <feColorMatrix values="0 0 0 0 1   0 0 0 0 1   0 0 0 0 1  0 0 0 1 0" type="matrix" in="shadowBlurOuter1" result="shadowMatrixOuter1"></feColorMatrix>
            <feMerge>
                <feMergeNode in="shadowMatrixOuter1"></feMergeNode>
                <feMergeNode in="SourceGraphic"></feMergeNode>
            </feMerge>
        </filter>
        <path d="M75.9788569,17.0863439 C77.0550527,19.2235693 76.8655627,20.6029735 75.410387,21.2245566 C25.0978451,19.9064056 12.3994982,46.050772 12.3994982,74.4695306 C12.3994982,74.4695306 12.7568894,76.5758953 14.8468685,74.4695306 C15.2721822,74.0408825 18.2356377,66.0276621 18.5821048,46.050772 C21.6700409,39.8574765 26.4825908,34.8807781 28.420944,33.9140863 C28.420944,59.3178296 24.3497153,82.5932375 13.0071042,83.0796975 C5.67712171,82.7553909 3.24545989,75.9202651 5.71211876,62.5743201 C11.4491372,28.5236992 34.3257069,12.9960661 74.3418279,15.9914209 L74.3418284,15.9914134 C75.0418445,16.0438122 75.6631459,16.4593711 75.9788569,17.0863439 Z" id="path-4"></path>
        <filter x="-2.1%" y="-2.2%" width="104.2%" height="104.4%" filterUnits="objectBoundingBox" id="filter-5">
            <feOffset dx="0" dy="0" in="SourceAlpha" result="shadowOffsetOuter1"></feOffset>
            <feGaussianBlur stdDeviation="0.5" in="shadowOffsetOuter1" result="shadowBlurOuter1"></feGaussianBlur>
            <feColorMatrix values="0 0 0 0 1   0 0 0 0 1   0 0 0 0 1  0 0 0 1 0" type="matrix" in="shadowBlurOuter1"></feColorMatrix>
        </filter>
        <radialGradient cx="50%" cy="50%" fx="50%" fy="50%" r="50%" gradientTransform="translate(0.500000,0.500000),scale(0.927536,1.000000),rotate(90.000000),translate(-0.500000,-0.500000)" id="radialGradient-6">
            <stop stop-color="#00CDFF" offset="0%"></stop>
            <stop stop-color="#006F8A" offset="100%"></stop>
        </radialGradient>
        <radialGradient cx="60.4819101%" cy="0%" fx="60.4819101%" fy="0%" r="100%" gradientTransform="translate(0.604819,0.000000),scale(0.715096,1.000000),rotate(90.000000),translate(-0.604819,-0.000000)" id="radialGradient-7">
            <stop stop-color="#3A0088" offset="0%"></stop>
            <stop stop-color="#714288" offset="100%"></stop>
        </radialGradient>
        <radialGradient cx="60.4819101%" cy="0%" fx="60.4819101%" fy="0%" r="198.957126%" gradientTransform="translate(0.604819,0.000000),scale(1.000000,0.502621),rotate(90.000000),translate(-0.604819,-0.000000)" id="radialGradient-8">
            <stop stop-color="#3A0088" offset="0%"></stop>
            <stop stop-color="#714288" offset="100%"></stop>
        </radialGradient>
        <radialGradient cx="60.4819101%" cy="0%" fx="60.4819101%" fy="0%" r="100%" gradientTransform="translate(0.604819,0.000000),scale(0.661182,1.000000),rotate(90.000000),translate(-0.604819,-0.000000)" id="radialGradient-9">
            <stop stop-color="#3A0088" offset="0%"></stop>
            <stop stop-color="#714288" offset="100%"></stop>
        </radialGradient>
    </defs>
    <g id="Logo-Design" stroke="none" stroke-width="1" fill="none" fill-rule="evenodd">
        <rect fill="#D8D8D8" x="0" y="0" width="350" height="240"></rect>
        <g id="Logo-3" transform="translate(9.000000, 23.000000)">
            <g id="Logo-2" transform="translate(12.254744, 0.000000)">
                <g id="Path" stroke="#000000">
                    <path d="M14.7424574,55.1177904 C79.5719912,55.1177904 98.7803226,55.1177904 98.7803226,55.1177904 C35.4986786,103.726432 6.06947633,77.5844428 5.6,42 C5.13052367,6.41555722 46.4164882,6.21976226 105.750425,30.019077 C131.674814,40.417556 148.465061,20.5992551 143.633644,8.85027205 C138.802226,-2.89871097 113.706162,-2.89871097 108.179857,8.85027205 C102.653551,20.5992551 124.869376,25.5376835 124.869376,22.0234401" stroke-width="4.6"></path>
                    <path d="M120.293112,21.5930942 C121.139338,21.5930942 123.268338,20.9481469 125.543932,19.5529316 C127.060994,18.6227881 128.209296,17.6384775 128.988836,16.6 C128.379303,21.1693951 127.250532,23.7922968 125.602524,24.4687051 C123.130511,25.4833177 118.840736,21.5930942 120.293112,21.5930942 Z" id="Path-2" stroke-width="0.5" fill="#000000"></path>
                    <path d="M20.5406502,53.007645 C15.4853742,53.1125213 11.9935617,52.3098724 10.0652129,50.5996983 C10.0652129,50.926507 13.4295027,57.3450164 14.8482957,57.3450164 C16.2670886,57.3450164 17.238289,57.1969447 18.8213328,57.1969447 C19.8766954,57.1969447 20.4498012,55.8005115 20.5406502,53.007645 Z" id="Path-3" stroke-width="0.5" fill="#000000" stroke-linejoin="round"></path>
                </g>
                <text id="Moha" font-family="JCfg, PilGi" font-size="38" font-weight="normal" letter-spacing="-0.998420417" fill="#000000">
                    <tspan x="15.5" y="50.6">Moha</tspan>
                </text>
            </g>
            <g id="Da-Barber" transform="translate(0.000000, 57.612588)" font-family="AmericanTypewriter, American Typewriter" font-size="21.5" font-weight="normal" letter-spacing="-0.564895749">
                <text id="D" transform="translate(15.308013, 12.966506) rotate(60.000000) translate(-15.308013, -12.966506) " fill="#FF0000">
                    <tspan x="7.3080127" y="19.9665064">D</tspan>
                </text>
                <text id="a" transform="translate(22.049288, 22.311775) rotate(53.000000) translate(-22.049288, -22.311775) " fill="#001DA9">
                    <tspan x="16.0492884" y="29.3117746">a</tspan>
                </text>
                <text id="B" transform="translate(33.167706, 29.728419) rotate(26.000000) translate(-33.167706, -29.728419) " fill="#FF0000">
                    <tspan x="25.6677062" y="36.7284187">B</tspan>
                </text>
                <text id="a" transform="translate(43.850148, 32.496598) rotate(11.000000) translate(-43.850148, -32.496598) " fill="#001DA9">
                    <tspan x="37.8501482" y="39.4965983">a</tspan>
                </text>
                <text id="r" transform="translate(53.719865, 33.488630) rotate(-4.000000) translate(-53.719865, -33.488630) " fill="#FF0000">
                    <tspan x="48.7198654" y="40.4886299">r</tspan>
                </text>
                <text id="b" transform="translate(64.167920, 32.995008) rotate(-10.000000) translate(-64.167920, -32.995008) " fill="#001DA9">
                    <tspan x="58.1679196" y="39.9950081">b</tspan>
                </text>
                <text id="e" transform="translate(73.583734, 30.017566) rotate(-20.000000) translate(-73.583734, -30.017566) " fill="#FF0000">
                    <tspan x="68.0837336" y="37.0175656">e</tspan>
                </text>
                <text id="r" transform="translate(82.567440, 26.523820) rotate(-22.000000) translate(-82.567440, -26.523820) " fill="#001DA9">
                    <tspan x="77.5674404" y="33.52382">r</tspan>
                </text>
            </g>
        </g>
        <g id="1.1-copy-15" transform="translate(175.000000, 30.000000)">
            <g id="jwp" fill-rule="nonzero">
                <use fill="black" fill-opacity="1" filter="url(#filter-2)" xlink:href="#path-1"></use>
                <use fill="#000000" xlink:href="#path-1"></use>
                <use fill="#000000" xlink:href="#path-1"></use>
            </g>
            <g id="Arrow" filter="url(#filter-3)" transform="translate(128.305375, 52.473420) rotate(-270.000000) translate(-128.305375, -52.473420) translate(91.010365, 9.783788)">
                <g id="Rectangle" transform="translate(40.722838, 49.353917) rotate(-90.000000) translate(-40.722838, -49.353917) ">
                    <use fill="black" fill-opacity="1" filter="url(#filter-5)" xlink:href="#path-4"></use>
                    <use fill="#000000" fill-rule="evenodd" xlink:href="#path-4"></use>
                </g>
                <polygon id="Triangle" fill="#000000" transform="translate(9.794649, 13.726165) rotate(-360.000000) translate(-9.794649, -13.726165) " points="9.79464918 0 19.5892984 27.4523301 9.79464918 13.7261651 2.27373675e-13 27.4523301"></polygon>
            </g>
            <rect id="Rectangle" stroke="#000000" stroke-width="0.5" fill="#D8D8D8" x="118.509581" y="26.5303714" width="1" height="1"></rect>
            <rect id="Rectangle" stroke="#000000" stroke-width="0.5" fill="#D8D8D8" opacity="0.756649926" x="128.555375" y="23.7599527" width="1" height="1"></rect>
            <rect id="Rectangle" stroke="#000000" stroke-width="0.5" fill="#D8D8D8" x="128.304231" y="23.5080965" width="1" height="1"></rect>
            <rect id="Rectangle" stroke="#000000" stroke-width="0.5" fill="#D8D8D8" x="118.509581" y="26.2785151" width="1" height="1"></rect>
            <path d="M128.816386,25.2612899 C129.755427,29.0526469 129.888878,31.2924658 129.21674,31.9807466 C127.199347,37.1917597 125.598982,39.9990148 124.415645,40.4025118 C123.324518,40.7745669 121.685289,36.8479097 118.979178,37.036573 C118.979178,37.036573 119.05077,36.490495 119.193954,35.398339 C118.646852,28.6403063 118.373301,24.9043104 118.373301,24.1903514 C118.946097,23.9418579 121.296822,22.5382498 123.034743,22.5382498 C125.533002,22.5382498 126.288849,22.9162722 127.03694,22.0896459 C127.479188,21.6009704 128.57057,24.5750567 128.816386,25.2612899 Z" id="Path" fill="#000000"></path>
            <rect id="Rectangle" stroke="#000000" stroke-width="0.5" fill="#D8D8D8" x="128.304231" y="23.7599527" width="1" height="1"></rect>
            <path d="M118.373301,26.1553237 C119.727894,29.2881388 119.917135,32.4028063 118.941025,35.4993261" id="Path-4" stroke-opacity="0.45" stroke="#FFFFFF" stroke-width="0.5"></path>
            <path d="M128.275056,23.2490887 C129.297754,26.6183456 129.683257,29.4759793 129.431564,31.8219899" id="Path-4" stroke-opacity="0.45" stroke="#FFF5F5" stroke-width="0.5"></path>
        </g>
        <path d="M36,147 L69.0701141,197.464976 L60.2345875,211 L36,211 L36,147 Z M105,147 L105,211 L63.2639109,211 L105,147 Z M70.6375253,164.171651 L81.3352051,178.754281 L70.4864982,195.389495 L59.7239569,178.890137 L70.6375253,164.171651 Z" id="Graphic" fill="url(#radialGradient-6)"></path>
        <g id="Concept-4-Copy" transform="translate(148.000000, 138.000000)">
            <path d="M64.997,35.0963605 C63.298729,38.5871355 62.3454164,42.5114761 62.3454164,46.6597938 C62.3454164,50.8105536 63.2998517,54.7370724 65,58.2293916 C56.6682434,63.9436984 49.8019467,66.8008517 44.4011097,66.8008517 C19.4767031,66.8008517 2.84217094e-14,51.3756362 2.84217094e-14,48.024286 C24.4651534,40.1760681 27.6159861,20.3195876 39.4240747,20.3195876 C49.6335607,20.3195876 52.1209496,34.9471775 64.997,35.0963605 Z" id="Combined-Shape" fill="url(#radialGradient-7)"></path>
            <path d="M187.997,35.0963605 C186.298729,38.5871355 185.345416,42.5114761 185.345416,46.6597938 C185.345416,50.8105536 186.299852,54.7370724 188,58.2293916 C179.668243,63.9436984 172.801947,66.8008517 167.40111,66.8008517 C142.476703,66.8008517 123,51.3756362 123,48.024286 C147.465153,40.1760681 150.615986,20.3195876 162.424075,20.3195876 C172.633561,20.3195876 175.12095,34.9471775 187.997,35.0963605 Z" id="Combined-Shape-Copy" fill="#000000" transform="translate(155.500000, 43.560220) scale(-1, 1) translate(-155.500000, -43.560220) "></path>
            <g id="Record" transform="translate(67.500000, 20.319588)">
                <path d="M26.6860448,52.6804124 C12.1542971,52.6804124 12.1542971,0 26.6860448,0 C41.2177925,0 52.9981015,11.792912 52.9981015,26.3402062 C52.9981015,40.8875004 41.2177925,52.6804124 26.6860448,52.6804124 Z M26.3120567,31.9845361 C29.4260027,31.9845361 31.9503546,29.4574835 31.9503546,26.3402062 C31.9503546,23.2229289 29.4260027,20.6958763 26.3120567,20.6958763 C23.1981108,20.6958763 20.6737589,23.2229289 20.6737589,26.3402062 C20.6737589,29.4574835 23.1981108,31.9845361 26.3120567,31.9845361 Z" id="Combined-Shape" fill="#000000"></path>
                <path d="M26.4296488,20.6970795 C26.3905479,20.6962786 26.3513493,20.6958763 26.3120567,20.6958763 C23.1981108,20.6958763 20.6737589,23.2229289 20.6737589,26.3402062 C20.6737589,29.4574835 23.1981108,31.9845361 26.3120567,31.9845361 C26.3645927,31.9845361 26.4169609,31.9838168 26.4691519,31.9823875 C26.4951844,43.0255544 26.4721622,52.6804124 26.3120567,52.6804124 C11.7803091,52.6804124 1.56319402e-13,40.8875004 1.56319402e-13,26.3402062 C1.56319402e-13,11.792912 11.780353,0 26.3120567,0 C26.3120567,0 26.3805945,9.65430695 26.4296488,20.6970795 Z" id="Combined-Shape" fill="url(#radialGradient-8)"></path>
            </g>
            <g id="Halo" transform="translate(72.500000, 0.000000)" stroke-width="3.5">
                <path d="M21.5,0 C9.68247739,0 0,3.18222781 0,7.10770476 C0,11.0331817 9.62587788,14.2154095 21.5,14.2154095 L21.5,14.2154095" id="Path" stroke="#000000"></path>
                <path d="M43,0 C31.1824774,0 21.5,3.18222781 21.5,7.10770476 C21.5,11.0331817 31.1258779,14.2154095 43,14.2154095" id="Path" stroke="url(#radialGradient-9)" transform="translate(32.250000, 7.107705) scale(-1, 1) translate(-32.250000, -7.107705) "></path>
            </g>
        </g>
    </g>
</svg>