<?xml version="1.0" encoding="UTF-8"?>
<svg width="350px" height="240px" viewBox="0 0 350 240" version="1.1" xmlns="http://www.w3.org/2000/svg" xmlns:xlink="http://www.w3.org/1999/xlink">
    <!-- Generator: Sketch 55.2 (78181) - https://sketchapp.com -->
    <title>Snapchat</title>
    <desc>Created with Sketch.</desc>
    <defs>
        <filter x="-32.3%" y="-30.0%" width="165.6%" height="168.9%" filterUnits="objectBoundingBox" id="filter-1">
            <feOffset dx="0" dy="4" in="SourceAlpha" result="shadowOffsetOuter1"></feOffset>
            <feGaussianBlur stdDeviation="4" in="shadowOffsetOuter1" result="shadowBlurOuter1"></feGaussianBlur>
            <feComposite in="shadowBlurOuter1" in2="SourceAlpha" operator="out" result="shadowBlurOuter1"></feComposite>
            <feColorMatrix values="0 0 0 0 0   0 0 0 0 0   0 0 0 0 0  0 0 0 0.15 0" type="matrix" in="shadowBlurOuter1" result="shadowMatrixOuter1"></feColorMatrix>
            <feMerge>
                <feMergeNode in="shadowMatrixOuter1"></feMergeNode>
                <feMergeNode in="SourceGraphic"></feMergeNode>
            </feMerge>
        </filter>
        <path d="M48.5938667,88.9192953 C48.3514667,88.9192953 48.1136,88.9123996 47.8754667,88.9009952 L47.8749333,88.9009952 C47.7232,88.9126648 47.5645333,88.9192953 47.4058667,88.9192953 C41.8365333,88.9192953 38.2618667,86.4060842 34.8053333,83.9753561 C32.4184,82.298114 30.1661333,80.714494 27.5122667,80.2750268 C26.2173333,80.0617911 24.9285333,79.9535819 23.6829333,79.9535819 C21.4389333,79.9535819 19.6685333,80.2981008 18.376,80.549528 C17.5906667,80.7022939 16.9130667,80.8335771 16.3981333,80.8335771 C15.8602667,80.8335771 15.2773333,80.7179418 15.024,79.8570424 C14.8037333,79.1112478 14.6445333,78.3887924 14.4914667,77.6899415 C14.0965333,75.8914945 13.8162667,74.7852679 13.0584,74.6696326 C4.22533333,73.3127745 1.69706667,71.4623446 1.13333333,70.1495127 C1.0536,69.961738 1.00826667,69.773698 0.997333333,69.5875146 C0.9688,69.0830689 1.328,68.637767 1.82906667,68.5563449 C15.4077333,66.3324873 21.4970667,52.5294527 21.7498667,51.9433197 C21.7568,51.9271413 21.764,51.9114934 21.7714667,51.8953151 C22.6026667,50.2201947 22.7653333,48.7662666 22.2568,47.5743744 C21.3250667,45.3902995 18.2858667,44.4302084 16.2741333,43.7955404 C15.7818667,43.6406527 15.3152,43.4942521 14.9472,43.349708 C10.9328,41.7711271 10.5986667,40.1511722 10.7565333,39.3252816 C11.0256,37.9182971 12.916,36.9377841 14.4450667,36.9377841 C14.8642667,36.9377841 15.2333333,37.0117801 15.5437333,37.1557938 C17.3496,37.9973323 18.9773333,38.4235385 20.3816,38.4235385 C22.3218667,38.4235385 23.1688,37.6125001 23.2722667,37.5061475 C23.2229333,36.5922043 23.1618667,35.6376828 23.0994667,34.652661 C22.6949333,28.2677895 22.1938667,20.3340416 24.2248,15.8054347 C30.312,2.23075329 43.2208,1.1762443 47.032,1.1762443 C47.1296,1.1762443 48.7029333,1.15953553 48.7029333,1.15953553 L48.9285333,1.15873988 C52.7485333,1.15873988 65.6853333,2.21510539 71.776,15.7972129 C73.8074667,20.3282068 73.3050667,28.2685851 72.9,34.6486828 L72.8832,34.9261014 C72.8272,35.8145835 72.7728,36.6781352 72.7274667,37.5048214 C72.8245333,37.6032175 73.6034667,38.3492773 75.3626667,38.4161124 L75.3645333,38.4161124 C76.7013333,38.3651904 78.2378667,37.9413711 79.924,37.1557938 C80.4181333,36.9263797 80.9669333,36.8781099 81.3405333,36.8781099 C81.9112,36.8781099 82.4896,36.9879104 82.9698667,37.1870896 L82.9989333,37.1990244 C84.3629333,37.6796004 85.2562667,38.630409 85.2754667,39.6239177 C85.2930667,40.5593435 84.5752,41.9657975 81.0528,43.349708 C80.6877333,43.4923955 80.2210667,43.6398571 79.7269333,43.7955404 C77.7130667,44.4312692 74.6746667,45.3902995 73.7434667,47.5741091 C73.2346667,48.7652057 73.3976,50.2183382 74.2282667,51.8942542 C74.2357333,51.9104326 74.2442667,51.9260805 74.2506667,51.9433197 C74.5032,52.5289222 80.5872,66.3279785 94.1717333,68.5544883 C94.6733333,68.6367061 95.0314667,69.0814776 95.004,69.5864537 C94.9925333,69.7755546 94.9464,69.9662467 94.8650667,70.1513693 C94.3048,71.4549185 91.7786667,73.3029614 82.9424,74.6608804 C82.2205333,74.7712113 81.9408,75.7066372 81.5098667,77.6684588 C81.3533333,78.3824272 81.1946667,79.0836651 80.9762667,79.8212379 C80.7882667,80.4612102 80.3872,80.760642 79.7125333,80.760642 L79.6026667,80.760642 C79.1344,80.760642 78.4688,80.6773634 77.6253333,80.5126626 C76.1293333,80.2217179 74.452,79.9535819 72.3181333,79.9535819 C71.072,79.9535819 69.7824,80.0617911 68.4866667,80.2750268 C65.8357333,80.714494 63.5848,82.2949313 61.2024,83.9700518 C57.7389333,86.4060842 54.1648,88.9192953 48.5938667,88.9192953" id="path-2"></path>
        <filter x="-16.0%" y="-12.5%" width="131.9%" height="134.2%" filterUnits="objectBoundingBox" id="filter-3">
            <feMorphology radius="1" operator="dilate" in="SourceAlpha" result="shadowSpreadOuter1"></feMorphology>
            <feOffset dx="0" dy="4" in="shadowSpreadOuter1" result="shadowOffsetOuter1"></feOffset>
            <feGaussianBlur stdDeviation="4" in="shadowOffsetOuter1" result="shadowBlurOuter1"></feGaussianBlur>
            <feComposite in="shadowBlurOuter1" in2="SourceAlpha" operator="out" result="shadowBlurOuter1"></feComposite>
            <feColorMatrix values="0 0 0 0 0   0 0 0 0 0   0 0 0 0 0  0 0 0 0.15 0" type="matrix" in="shadowBlurOuter1"></feColorMatrix>
        </filter>
    </defs>
    <g id="Snapchat" stroke="none" stroke-width="1" fill="none" fill-rule="evenodd">
        <rect fill="#FFFC00" x="0" y="0" width="350" height="240"></rect>
        <g id="Snapchat-logo" filter="url(#filter-1)" transform="translate(127.000000, 76.000000)" stroke-linecap="round" stroke-linejoin="round">
            <g id="Fill-1">
                <use fill="black" fill-opacity="1" filter="url(#filter-3)" xlink:href="#path-2"></use>
                <use stroke="#000000" stroke-width="2" fill="#FFFFFF" fill-rule="evenodd" xlink:href="#path-2"></use>
            </g>
        </g>
    </g>
</svg>